<svg id="Layer_1" enable-background="new 0 0 512.074 512.074" height="512" viewBox="0 0 512.074 512.074" width="512" xmlns="http://www.w3.org/2000/svg"><g><path d="m191.77 190.74c8.284 0 15-6.716 15-15s-6.716-15-15-15c-50.754 0-73.871-25.035-73.871-48.295 0-17.009 12.906-34.171 41.738-34.171 32.268 0 55.733 25.848 69.745 76.825 11.477 41.754 11.655 84.489 11.655 84.916.004 8.281 6.718 14.992 15 14.992 8.284 0 15-6.716 15-15 0-1.886-.143-46.716-12.579-92.313-22.41-82.171-66.109-99.42-98.821-99.42-47.097 0-71.738 32.282-71.738 64.171 0 41.92 38.46 78.295 103.871 78.295z"/><path d="m304.237 160.74c-8.284 0-15 6.716-15 15s6.716 15 15 15c80.994 0 127.844-43.936 127.844-94.096 0-35.113-27.43-80.504-95.71-80.504-8.284 0-15 6.716-15 15s6.716 15 15 15c101.596 3.411 81.893 117.757-32.134 114.6z"/><path d="m261.497 41.747c5.586 5.81 15.628 5.811 21.213 0 0 0 16.066-16.067 16.066-16.067 13.532-14.568-6.64-34.749-21.214-21.213 0 0-5.459 5.46-5.459 5.46l-5.46-5.46c-14.574-13.536-34.745 6.646-21.213 21.213 0 .001 16.067 16.067 16.067 16.067z"/><path d="m271.037 512.074h145.667c8.284 0 15-6.716 15-15v-151.88h-160.667z"/><path d="m80.37 497.074c0 8.284 6.716 15 15 15h145.667v-166.88h-160.667z"/><path d="m510.895 250.334c-2.322-5.605-7.791-9.26-13.858-9.26h-160.667c-3.978 0-7.793 1.581-10.606 4.394l-69.727 69.727h203.092l48.514-48.514c4.29-4.29 5.573-10.742 3.252-16.347z"/><path d="m175.704 241.074h-160.667c-6.067 0-11.537 3.655-13.858 9.26s-1.038 12.057 3.252 16.347l48.514 48.514h203.092l-69.727-69.727c-2.813-2.814-6.628-4.394-10.606-4.394z"/></g></svg>