<svg width="345" height="279" viewBox="0 0 345 279" fill="none" xmlns="http://www.w3.org/2000/svg">
<path d="M230.233 120.69L230.408 120.872L232.71 117.84L232.583 117.707C231.41 116.48 230.405 115.74 229.013 114.717L228.73 114.51L226.54 117.485L226.715 117.613C227.998 118.552 229.183 119.59 230.233 120.69ZM228.823 115.11C230.113 116.057 231.068 116.768 232.143 117.87L230.368 120.207C229.393 119.207 228.31 118.26 227.143 117.387L228.823 115.11ZM210.015 110.43L210.225 110.482L211.125 106.9L210.915 106.848C209.335 106.45 207.66 106.077 205.938 105.74L205.725 105.698L205.013 109.32L205.225 109.363C206.89 109.692 208.503 110.05 210.015 110.43ZM206.068 106.205C207.633 106.515 209.155 106.855 210.603 107.215L209.913 109.96C208.518 109.615 207.043 109.285 205.523 108.985L206.068 106.205ZM217.453 112.73L217.655 112.808L218.965 109.355L218.763 109.28C217.235 108.7 215.593 108.152 213.88 107.655L213.673 107.595L212.638 111.14L212.845 111.2C214.465 111.667 216.015 112.185 217.453 112.73ZM213.965 108.125C215.518 108.582 217.008 109.08 218.405 109.603L217.403 112.25C216.073 111.752 214.653 111.28 213.173 110.842L213.965 108.125ZM224.36 116.035L224.545 116.147L226.458 112.988L226.273 112.875C224.853 112.015 223.293 111.202 221.638 110.46L221.44 110.372L219.93 113.743L220.128 113.83C221.643 114.512 223.068 115.255 224.36 116.035ZM221.658 110.945C223.153 111.622 224.565 112.357 225.863 113.135L224.398 115.555C223.198 114.84 221.888 114.157 220.5 113.527L221.658 110.945ZM184.97 129.602L184.758 129.565L184.113 133.2L184.325 133.238C186.053 133.545 187.755 133.877 189.39 134.23L189.6 134.275L190.378 130.665L190.168 130.62C188.49 130.26 186.74 129.915 184.97 129.602ZM189.268 133.762C187.76 133.44 186.195 133.135 184.61 132.85L185.105 130.062C186.725 130.353 188.323 130.665 189.863 130.995L189.268 133.762ZM193.268 131.325L193.058 131.275L192.193 134.865L192.403 134.915C194.11 135.327 195.783 135.77 197.375 136.23L197.583 136.29L198.61 132.742L198.403 132.682C196.755 132.207 195.028 131.75 193.268 131.325ZM197.288 135.758C195.818 135.335 194.28 134.927 192.713 134.548L193.375 131.795C194.983 132.185 196.56 132.603 198.075 133.038L197.288 135.758ZM159.903 126.535L159.688 126.515L159.343 130.193L159.558 130.212C161.458 130.39 163.158 130.557 164.753 130.715L164.968 130.738L165.338 127.062L165.123 127.04C163.563 126.882 161.855 126.717 159.903 126.535ZM164.583 130.262C163.108 130.115 161.543 129.963 159.813 129.8L160.078 126.982C161.85 127.15 163.42 127.302 164.865 127.448L164.583 130.262ZM201.458 133.62L201.253 133.553L200.115 137.065L200.32 137.133C201.988 137.673 203.608 138.247 205.143 138.848L205.343 138.925L206.688 135.485L206.488 135.408C204.885 134.783 203.195 134.182 201.458 133.62ZM205.098 138.367C203.68 137.817 202.188 137.288 200.658 136.788L201.53 134.095C203.115 134.613 204.66 135.162 206.128 135.73L205.098 138.367ZM151.565 125.762L151.35 125.743L151.01 129.42L151.225 129.44C152.28 129.537 153.348 129.637 154.425 129.735L156.65 129.94L156.99 126.262L154.765 126.058C153.688 125.958 152.62 125.86 151.565 125.762ZM156.26 129.47L154.465 129.305C153.46 129.212 152.465 129.122 151.48 129.03L151.743 126.21C152.728 126.302 153.723 126.393 154.725 126.485L156.523 126.65L156.26 129.47ZM217.095 140.62L216.913 140.505L214.965 143.643L215.148 143.755C216.628 144.673 218.003 145.64 219.235 146.633L219.41 146.773L221.6 143.805L221.44 143.675C220.088 142.592 218.708 141.62 217.095 140.62ZM219.333 146.16C218.183 145.247 216.915 144.358 215.56 143.508L217.053 141.102C218.508 142.012 219.775 142.905 221.01 143.887L219.333 146.16ZM143.258 124.95L143.043 124.927L142.655 128.6L142.87 128.622C144.43 128.787 146.14 128.96 148.095 129.145L148.31 129.165L148.663 125.488L148.448 125.467C146.495 125.283 144.798 125.112 143.258 124.95ZM147.92 128.695C146.145 128.525 144.573 128.367 143.13 128.215L143.428 125.4C144.855 125.55 146.418 125.708 148.19 125.878L147.92 128.695ZM177.353 128.432L176.398 128.31L175.928 131.973L176.873 132.095C178.36 132.29 179.838 132.502 181.265 132.727L181.478 132.76L182.053 129.113L181.84 129.08C180.383 128.848 178.873 128.63 177.353 128.432ZM181.12 132.268C179.755 132.055 178.348 131.852 176.93 131.667L176.41 131.6L176.77 128.792L177.298 128.86C178.738 129.05 180.173 129.255 181.56 129.473L181.12 132.268ZM168.255 127.363L168.04 127.34L167.65 131.012L167.865 131.035C169.718 131.233 171.41 131.423 173.043 131.615L173.258 131.64L173.693 127.973L173.478 127.948C171.83 127.753 170.12 127.56 168.255 127.363ZM172.88 131.163C171.375 130.985 169.815 130.81 168.125 130.63L168.423 127.815C170.123 127.995 171.693 128.172 173.213 128.352L172.88 131.163ZM126.963 122.46L126.753 122.408L125.875 125.995L126.085 126.048C127.643 126.427 129.363 126.778 131.343 127.113L131.555 127.147L132.173 123.507L131.96 123.47C130.068 123.15 128.433 122.82 126.963 122.46ZM131.2 126.65C129.408 126.342 127.83 126.022 126.395 125.677L127.068 122.927C128.438 123.257 129.948 123.562 131.673 123.857L131.2 126.65ZM209.453 136.637L209.255 136.55L207.77 139.93L207.968 140.018C209.57 140.723 211.105 141.47 212.53 142.24L212.72 142.342L214.478 139.095L214.288 138.992C212.775 138.177 211.148 137.385 209.453 136.637ZM212.545 141.76C211.223 141.05 209.81 140.363 208.338 139.71L209.475 137.12C211.018 137.802 212.5 138.528 213.89 139.27L212.545 141.76ZM135.015 123.948L134.803 123.918L134.278 127.573L134.49 127.603C136.088 127.832 137.803 128.052 139.73 128.275L139.945 128.3L140.37 124.632L140.155 124.607C138.265 124.387 136.585 124.173 135.015 123.948ZM139.565 127.823C137.813 127.618 136.24 127.415 134.765 127.207L135.168 124.405C136.62 124.61 138.17 124.81 139.893 125.01L139.565 127.823ZM126.743 21.5725L126.933 21.675L128.695 18.43L128.505 18.3275C126.863 17.435 125.35 16.535 124.013 15.655L123.833 15.5375L121.803 18.6225L121.983 18.74C123.405 19.6775 125.008 20.63 126.743 21.5725ZM123.955 16.1325C125.205 16.9475 126.603 17.7775 128.11 18.6025L126.76 21.09C125.18 20.2275 123.718 19.355 122.4 18.4975L123.955 16.1325ZM142.813 28.535L143.018 28.605L144.228 25.115L144.025 25.045C142.333 24.4575 140.66 23.8375 139.053 23.2L138.853 23.12L137.493 26.5525L137.693 26.6325C139.343 27.2925 141.068 27.93 142.813 28.535ZM139.09 23.6825C140.578 24.2675 142.118 24.84 143.678 25.3825L142.75 28.0575C141.15 27.5 139.57 26.915 138.048 26.315L139.09 23.6825ZM159.6 33.2425L159.81 33.29L160.605 29.685L160.395 29.6375C158.655 29.2525 156.913 28.8375 155.218 28.4025L155.008 28.35L154.09 31.9275L154.3 31.98C156.035 32.425 157.818 32.85 159.6 33.2425ZM155.32 28.875C156.885 29.275 158.488 29.655 160.093 30.0125L159.483 32.7775C157.848 32.415 156.213 32.025 154.618 31.6175L155.32 28.875ZM134.653 25.385L134.85 25.47L136.308 22.0775L136.11 21.9925C134.45 21.28 132.835 20.535 131.31 19.7825L131.118 19.6875L129.48 22.9975L129.673 23.0925C131.258 23.875 132.933 24.6475 134.653 25.385ZM131.313 20.2625C132.725 20.9575 134.215 21.6425 135.743 22.3025L134.625 24.9025C133.05 24.2225 131.518 23.515 130.058 22.7975L131.313 20.2625ZM151.143 31.135L151.35 31.1925L152.343 27.635L152.135 27.5775C150.418 27.0975 148.703 26.585 147.043 26.055L146.838 25.99L145.713 29.5075L145.918 29.5725C147.623 30.1175 149.38 30.6425 151.143 31.135ZM147.118 26.53C148.653 27.0175 150.228 27.49 151.813 27.935L151.053 30.66C149.435 30.205 147.825 29.725 146.258 29.225L147.118 26.53ZM185.378 37.1075L185.593 37.1275L185.945 33.4525L185.73 33.4325C183.845 33.2525 182.103 33.07 180.403 32.8775L180.188 32.8525L179.773 36.5225L179.988 36.5475C181.708 36.74 183.47 36.925 185.378 37.1075ZM180.57 33.33C182.14 33.505 183.75 33.6725 185.475 33.84L185.205 36.6575C183.463 36.49 181.838 36.32 180.253 36.1425L180.57 33.33ZM226.973 42.8725L227.153 42.99L229.18 39.9025L229 39.785C227.648 38.8975 225.845 38.1625 223.488 37.54L223.28 37.485L222.338 41.055L222.545 41.11C224.483 41.625 225.973 42.2175 226.973 42.8725ZM223.585 38.015C225.69 38.585 227.33 39.245 228.583 40.03L227.028 42.3975C226.033 41.785 224.635 41.2325 222.863 40.7525L223.585 38.015ZM176.753 36.1625L176.968 36.19L177.428 32.525L177.213 32.4975C175.388 32.2675 173.608 32.0225 171.92 31.77L171.708 31.7375L171.155 35.39L171.368 35.4225C173.083 35.68 174.895 35.9275 176.753 36.1625ZM172.068 32.2275C173.628 32.4625 175.265 32.6875 176.943 32.9L176.59 35.7075C174.888 35.4925 173.225 35.2625 171.645 35.0275L172.068 32.2275ZM211.133 39.29L211.348 39.3125L211.728 35.64L211.513 35.6175C209.935 35.455 208.17 35.29 206.113 35.115L205.898 35.0975L205.585 38.7775L205.8 38.795C207.835 38.9675 209.58 39.13 211.133 39.29ZM206.293 35.5625C208.163 35.7225 209.79 35.8725 211.255 36.025L210.963 38.84C209.518 38.6925 207.908 38.5425 206.053 38.3825L206.293 35.5625ZM168.145 34.905L168.358 34.94L168.973 31.2975L168.76 31.2625C167.003 30.965 165.24 30.64 163.52 30.295L163.308 30.2525L162.58 33.8725L162.793 33.915C164.55 34.27 166.35 34.6 168.145 34.905ZM163.648 30.76C165.235 31.0775 166.858 31.375 168.475 31.6525L168.003 34.4425C166.355 34.1625 164.705 33.8575 163.09 33.535L163.648 30.76ZM193.995 37.8575L194.21 37.875L194.505 34.195L194.29 34.1775C192.26 34.015 190.558 33.8725 188.938 33.7275L188.723 33.7075L188.398 37.385L188.613 37.405C190.243 37.55 191.953 37.6925 193.995 37.8575ZM189.113 34.175C190.613 34.3075 192.19 34.44 194.04 34.5875L193.813 37.4075C191.955 37.2575 190.37 37.125 188.863 36.9925L189.113 34.175ZM219.52 40.4425L219.733 40.4825L220.415 36.8525L220.203 36.8125C218.61 36.5125 216.833 36.2425 214.763 35.985L214.548 35.9575L214.093 39.6225L214.308 39.65C216.3 39.8975 218.005 40.1575 219.52 40.4425ZM214.923 36.44C216.8 36.6775 218.438 36.925 219.91 37.1975L219.388 39.98C217.973 39.72 216.395 39.48 214.575 39.25L214.923 36.44ZM202.59 38.53L202.805 38.5475L203.098 34.865L202.883 34.8475C201.68 34.7525 200.453 34.655 199.205 34.56L197.293 34.41L197.005 38.0925L198.765 38.23C200.063 38.3325 201.338 38.4325 202.59 38.53ZM197.69 34.8775L199.173 34.9925C200.345 35.0825 201.5 35.1725 202.633 35.2625L202.408 38.085C201.225 37.99 200.02 37.8975 198.798 37.8025L197.468 37.7L197.69 34.8775ZM114.153 44.635L113.993 44.49L111.5 47.2125L111.66 47.3575C113.043 48.6225 114.76 49.845 116.768 50.9925L116.955 51.1L118.785 47.8925L118.598 47.785C116.828 46.775 115.333 45.715 114.153 44.635ZM116.795 50.51C114.973 49.455 113.398 48.3375 112.11 47.185L114.023 45.0975C115.158 46.1125 116.56 47.105 118.198 48.0525L116.795 50.51ZM121.593 49.3225L121.398 49.2325L119.843 52.5825L120.038 52.6725C121.76 53.4725 123.653 54.23 125.66 54.925L125.863 54.995L127.07 51.505L126.865 51.435C124.975 50.78 123.203 50.07 121.593 49.3225ZM125.598 54.4475C123.755 53.8025 122.013 53.105 120.415 52.3725L121.608 49.805C123.12 50.4975 124.77 51.16 126.523 51.7725L125.598 54.4475ZM144.5 59.2425L145.018 55.585L144.805 55.555C142.85 55.28 140.93 54.9625 139.1 54.6125L138.888 54.5725L138.198 58.2L138.41 58.24C140.3 58.6 142.278 58.925 144.29 59.21L144.5 59.2425ZM138.7 57.8575L139.23 55.0775C140.938 55.3975 142.718 55.6925 144.53 55.9525L144.135 58.755C142.278 58.4875 140.453 58.1875 138.7 57.8575ZM130.14 52.4775L129.933 52.4175L128.893 55.96L129.1 56.02C130.938 56.56 132.89 57.0625 134.9 57.5125L135.11 57.56L135.918 53.9575L135.708 53.91C133.775 53.4775 131.9 52.995 130.14 52.4775ZM134.783 57.0475C132.93 56.6275 131.13 56.165 129.425 55.67L130.223 52.955C131.868 53.4325 133.608 53.8825 135.4 54.2875L134.783 57.0475ZM237.098 119.635V119.457L236.993 119.315C232.31 112.908 224.493 108.307 213.758 105.645C208.905 104.442 204.158 103.817 200.01 103.52C204.003 103.117 207.818 102.627 211.368 102.022C225.438 99.6175 233.018 95.6275 234.543 89.825L234.56 89.7575V89.6875C234.56 83.4475 233.688 46.135 233.623 43.2875C233.708 42.4875 233.608 41.7225 233.313 40.99C230.775 34.6925 214.63 33.01 205.233 32.57C187.273 31.725 168.013 28.9325 152.39 24.9075C134.965 20.4175 123.583 14.7425 120.333 8.92499L119.738 7.85999L107.863 42.65L107.833 42.735V42.825C107.825 46.45 110.89 50.3325 116.245 53.4775C121.868 56.78 129.75 59.125 139.228 60.335C125.188 62.315 114.018 65.5075 109.635 71.38L109.493 71.57L109.535 71.8025C112.563 88.45 115.055 116.005 115.363 119.47C115.365 119.505 115.368 119.542 115.373 119.577C115.385 119.73 115.395 119.82 115.395 119.832L115.403 119.802C115.428 119.965 115.458 120.13 115.503 120.295C117.15 126.607 131.77 130.742 158.958 132.587C191.628 134.802 216.42 143.013 222.12 153.505L222.623 154.43L223.088 153.488C223.24 153.175 224.318 150.982 225.81 147.84L225.835 147.818C225.833 147.815 225.828 147.81 225.825 147.807C229.913 139.197 237.103 123.5 237.098 119.635ZM234.475 125.3C233.913 124.452 233.198 123.402 232.81 122.875L234.485 120.882C234.613 121.045 234.74 121.202 234.865 121.355C235.088 121.63 235.303 121.897 235.515 122.188C235.253 123.088 234.9 124.138 234.475 125.3ZM119.28 12.5675C119.803 13.04 120.635 13.7175 121.108 14.0975L119.725 16.6875C119.105 16.19 118.658 15.785 118.31 15.4125L119.28 12.5675ZM108.923 42.915L109.858 40.175C110.16 40.6625 110.66 41.325 111.253 42.095C111.538 42.465 111.788 42.7925 111.945 43.0175L110.325 45.12C110.213 44.9525 110.093 44.7775 109.968 44.5975C109.603 44.0675 109.208 43.495 108.928 42.96C108.923 42.945 108.923 42.93 108.923 42.915ZM116.798 52.54C112.465 49.9925 109.668 46.8875 109.053 44.015C109.235 44.295 109.425 44.575 109.61 44.8425C109.798 45.115 109.975 45.37 110.128 45.6075L110.293 45.865L112.473 43.0375L112.39 42.91C112.243 42.68 111.94 42.2875 111.593 41.835C111.053 41.13 110.268 40.1075 110.043 39.6325L118.153 15.87C118.53 16.255 119.013 16.6725 119.658 17.185L119.86 17.345L121.655 13.9825L121.515 13.87C120.658 13.1925 119.835 12.5 119.43 12.12L120.003 10.4425C125.085 17.71 140.123 22.865 152.115 25.9575C167.808 30 187.148 32.805 205.178 33.6525C209.188 33.84 215.1 34.3 220.485 35.4125C227.198 36.8 231.283 38.8675 232.303 41.395C232.523 41.9425 232.6 42.525 232.54 43.14H232.53C232.53 43.15 232.53 43.18 232.533 43.23C232.473 43.735 232.318 44.26 232.068 44.805C232.015 43.9975 231.845 43.145 231.55 42.33L231.458 42.07L228.275 44.19L228.335 44.35C228.538 44.8925 229.275 47.375 228.868 48.7375L228.84 48.8325C228.438 49.145 227.985 49.4425 227.495 49.73L226.675 43.27C225.86 42.5325 222.74 41.7 214.6 40.63L213.933 53.78C213.063 53.9275 212.165 54.07 211.248 54.205L211.663 40.2775C205.255 40.32 197.46 39.5075 189.32 38.435L188.818 56.375C187.888 56.4375 186.953 56.5 186.013 56.5625L187.193 38.8C180.8 38.3625 173.668 37.305 165.4 36.465L162.068 57.7775C162.5 57.86 162.933 57.93 163.368 57.99C162.378 58.06 161.39 58.13 160.405 58.2025V56.935L160.198 56.925C159.3 56.8875 158.395 56.8425 157.51 56.79L157.3 56.7775L157.16 58.45C156.03 58.54 154.903 58.6325 153.788 58.73L154.27 56.575L154.023 56.555C152.06 56.4025 150.118 56.215 148.248 55.9975L148.033 55.9725L147.645 59.315C146.368 59.4475 145.105 59.5875 143.863 59.735C129.533 58.51 121.235 55.1475 116.798 52.54ZM229.395 48.285C229.54 46.9075 229.038 45.0675 228.8 44.36L231.238 42.7375C231.553 43.7075 231.69 44.71 231.648 45.605C231.2 46.355 230.593 47.14 229.818 47.9575C229.81 47.965 229.803 47.97 229.798 47.9775L229.395 48.285ZM159.98 58.2325C159.185 58.2925 158.393 58.3525 157.603 58.415L157.703 57.2325C158.455 57.275 159.22 57.3125 159.98 57.3475V58.2325ZM148.093 59.26L148.418 56.45C150.148 56.6475 151.938 56.82 153.748 56.965L153.345 58.77C151.588 58.925 149.853 59.0875 148.145 59.265C148.125 59.2625 148.108 59.2625 148.093 59.26ZM135.858 61.96C148.03 59.975 162.803 59.075 177.09 58.205C182.855 57.8525 188.545 57.5075 193.955 57.095C194.87 57.0525 195.775 56.9775 196.668 56.88C212.838 55.5475 226.083 53.49 230.608 48.705C231.445 47.82 232.11 46.96 232.603 46.1275C232.61 46.48 232.62 46.8625 232.63 47.2675C232.023 47.8825 231.07 49.3725 230.373 49.9225L231.948 51.9225C232.518 51.475 232.545 51.3025 232.718 51.05C232.723 51.28 232.728 51.5125 232.733 51.75C231.215 56.2125 225.11 58.8125 219.343 60.2925L223.148 92.365C226.545 91.1575 231.565 87.5175 233.425 85.1475C233.438 85.8975 233.448 86.585 233.455 87.2C232.508 87.895 230.655 89.12 230.035 89.595L232.258 92.14C226.435 100.315 204.363 102.552 181.658 103.762C181.618 103.762 181.583 103.76 181.55 103.757L181.34 103.745L181.338 103.78C177.158 104 172.958 104.188 168.835 104.37C148.248 105.285 128.8 106.15 121.738 110.755C120.055 111.852 117.745 113.62 116.413 115.747C116.38 115.425 116.333 114.95 116.27 114.338C116.853 113.603 117.953 112.36 118.48 111.848L116.208 109.507C116.038 109.672 115.91 109.79 115.8 109.887C115.755 109.47 115.708 109.032 115.658 108.582C118.443 106.235 123.818 103.642 128.83 102.335L123.273 71.785C118.945 73.095 114.08 75.6425 111.655 77.77C111.573 77.2575 111.49 76.745 111.408 76.24C111.975 75.64 112.99 74.715 113.608 74.235L111.613 71.655C111.233 71.95 110.975 72.155 110.745 72.365C110.715 72.19 110.683 72.0175 110.653 71.845C114.133 67.39 122.385 64.155 135.858 61.96ZM194.65 104.47L194.328 107.283C192.873 107.118 191.358 106.965 189.815 106.83L190.025 104.425C191.07 104.385 192.305 104.36 193.698 104.368C194.02 104.4 194.335 104.432 194.65 104.47ZM181.668 104.85C183.298 104.762 184.923 104.673 186.535 104.573L186.39 106.548C185.895 106.493 185.01 106.357 184.153 106.225C183.163 106.072 182.143 105.917 181.575 105.86L181.668 104.85ZM223.518 150.11L223.423 150.012L223.338 149.92C222.99 149.538 222.633 149.143 222.033 148.557L223.69 146.197C224.04 146.542 224.423 146.935 224.825 147.363C224.34 148.395 223.898 149.32 223.518 150.11ZM225.028 146.945C224.593 146.485 224.18 146.067 223.813 145.712L223.633 145.538L221.473 148.613L221.605 148.74C222.273 149.388 222.655 149.805 223.023 150.21L223.323 150.523C223.015 151.163 222.755 151.7 222.558 152.105C219.288 147.048 211.795 142.482 200.783 138.863C189.435 135.13 175 132.588 159.04 131.505C137.02 130.013 125.99 127.21 120.75 124.325C121.413 124.612 122.138 124.887 122.93 125.15L123.135 125.217L124.295 121.713L124.09 121.645C122.275 121.045 120.883 120.378 119.953 119.665L119.783 119.535L117.793 122.132C117.123 121.408 116.743 120.7 116.568 120.025C116.465 119.63 116.435 119.237 116.458 118.85L118.16 118.287C121.188 119.91 126.35 122.065 131.963 121.993L133.44 108.19C133.993 108.095 134.56 108.005 135.138 107.92L133.5 122.085C139.693 123.535 149.35 124.948 155.61 124.948L158.91 105.923C159.71 105.882 160.513 105.842 161.32 105.805L157.693 125.327C165.9 125.535 173.193 126.615 179.515 127.652L184.12 107.753C180.76 106.61 176.665 105.747 171.545 105.342C174.778 105.197 178.02 105.047 181.243 104.88L181.115 106.265L181.338 106.277C181.803 106.307 182.97 106.485 184.098 106.658C185.155 106.82 186.155 106.972 186.583 107.005L186.798 107.02L186.98 104.552C187.328 104.532 187.675 104.51 188.02 104.49L188.023 104.53C188.47 104.5 189.003 104.472 189.605 104.448L189.363 107.228L189.578 107.247C191.265 107.395 192.923 107.562 194.508 107.743L194.723 107.768L195.108 104.39C195.935 104.405 196.808 104.435 197.718 104.478L197.24 108.075L197.453 108.105C199.133 108.327 200.775 108.575 202.335 108.84L202.548 108.875L203.165 105.235L202.953 105.2C201.51 104.955 200.003 104.728 198.465 104.518C202.893 104.765 208.135 105.375 213.51 106.707C223.905 109.285 231.478 113.695 236.02 119.817C235.995 120.285 235.875 120.912 235.675 121.67C235.523 121.475 235.37 121.285 235.213 121.092C235.038 120.877 234.86 120.66 234.678 120.42L234.515 120.205L232.275 122.872L232.38 123.01C232.76 123.507 233.683 124.865 234.308 125.812C231.978 132.01 227.833 141.02 225.028 146.945ZM118.135 122.382L119.858 120.135C120.785 120.802 122.09 121.423 123.745 121.985L122.855 124.673C120.863 123.997 119.313 123.245 118.135 122.382ZM198.083 104.893C199.648 105.103 201.185 105.335 202.653 105.582L202.18 108.372C200.748 108.132 199.245 107.905 197.71 107.7L198.083 104.893ZM160.628 66.27C169.67 65.585 180.025 64.7775 188.895 64.095L193.25 96.2475C184.55 96.835 175.193 97.255 166.065 97.805L160.628 66.27ZM192.175 64.01C200.413 63.3175 209.825 62.595 216.078 61.3775L220.035 92.9725C213.85 94.515 205.8 95.49 197.05 96.1675L192.175 64.01ZM157.458 66.6225L162.073 98.055C151.323 98.76 141.083 99.7125 132.848 101.407L127.15 70.6925C135.383 68.77 146.37 67.53 157.458 66.6225ZM133.223 51.37C127.673 50.465 119.553 47.2 112.21 40.5325L119.21 20.2625C126.553 23.9375 133.088 27.18 139.155 29.2375L133.223 51.37ZM141.263 29.9875C149.063 32.5475 156.923 34.55 163.228 35.695L159.375 56.5375C153.008 55.5525 143.583 54.5125 135.485 52L141.263 29.9875ZM202.828 132.622C196.725 130.67 189.43 129.382 181.34 127.975L186.138 107.747C193.433 108.35 204.995 110.147 210.215 112.382L202.828 132.622ZM232.333 125.06L223.755 144.008C217.368 138.64 212.398 136.668 204.705 133.52L211.98 112.91C219.66 114.643 227.198 118.367 232.333 125.06ZM131.635 68L130.998 64.8C132.645 64.4725 134.415 64.155 136.26 63.855L136.78 67.075C134.975 67.37 133.243 67.68 131.635 68ZM148.228 65.555L147.873 62.3125C149.565 62.1275 151.343 61.9475 153.16 61.78L153.463 65.0275C151.663 65.195 149.903 65.3725 148.228 65.555ZM156.61 64.7475L156.335 61.4975C158.043 61.3525 159.823 61.2125 161.628 61.08L161.865 64.3325C160.07 64.465 158.305 64.605 156.61 64.7475ZM181.91 63.095L181.688 59.84C183.485 59.715 185.255 59.585 186.943 59.45L187.203 62.7025C185.5 62.8375 183.723 62.97 181.91 63.095ZM173.445 63.615L173.268 60.3575C175.068 60.26 176.84 60.155 178.533 60.0475L178.738 63.3025C177.035 63.41 175.253 63.515 173.445 63.615ZM198.833 61.595L198.465 58.355C200.275 58.15 202.028 57.9325 203.675 57.7075L204.115 60.94C202.445 61.165 200.668 61.3875 198.833 61.595ZM190.375 62.4375L190.09 59.1875C191.893 59.03 193.655 58.8625 195.33 58.6925L195.663 61.9375C193.973 62.11 192.193 62.2775 190.375 62.4375ZM224.043 56.545L222.903 53.4875C224.628 52.845 226.11 52.155 227.43 51.3825L229.078 54.1975C227.593 55.07 225.945 55.8375 224.043 56.545ZM207.283 60.4825L206.788 57.2575C208.605 56.98 210.338 56.6825 211.938 56.3775L212.55 59.58C210.91 59.895 209.138 60.1975 207.283 60.4825ZM215.705 58.93L214.998 55.745C216.81 55.3425 218.493 54.9075 220 54.4575L220.935 57.5825C219.353 58.0575 217.593 58.51 215.705 58.93ZM123.57 69.9625L122.633 66.8375C124.225 66.36 125.98 65.9 127.85 65.4725L128.578 68.6525C126.778 69.065 125.093 69.505 123.57 69.9625ZM116.055 72.9725L114.478 70.1175C115.933 69.315 117.633 68.5575 119.53 67.865L120.648 70.93C118.908 71.5625 117.363 72.25 116.055 72.9725ZM139.89 66.6025L139.425 63.375C141.1 63.1325 142.878 62.9 144.705 62.6775L145.098 65.915C143.29 66.135 141.54 66.365 139.89 66.6025ZM165.018 64.115L164.8 60.86C166.518 60.745 168.298 60.635 170.093 60.5325L170.28 63.79C168.495 63.8925 166.725 64 165.018 64.115ZM202.713 97.1175L203.07 100.36C201.353 100.55 199.515 100.732 197.608 100.907L197.313 97.66C199.2 97.485 201.018 97.3025 202.713 97.1175ZM194.063 97.9375L194.328 101.187C192.593 101.33 190.753 101.467 188.865 101.6L188.64 98.345C190.515 98.215 192.34 98.0775 194.063 97.9375ZM185.38 98.5625L185.585 101.817C183.828 101.93 181.99 102.037 180.12 102.137L179.943 98.88C181.805 98.78 183.635 98.6725 185.38 98.5625ZM223.755 96.455L222.71 93.365C224.515 92.755 226.06 92.085 227.428 91.3175L229.023 94.1625C227.478 95.03 225.755 95.78 223.755 96.455ZM176.68 99.0525L176.843 102.31C175.348 102.385 173.808 102.457 172.225 102.53L171.38 102.567L171.233 99.31L172.078 99.2725C173.658 99.1975 175.19 99.1275 176.68 99.0525ZM219.683 94.2675L220.515 97.42C218.885 97.85 217.058 98.2575 215.078 98.6325L214.473 95.4275C216.375 95.07 218.128 94.68 219.683 94.2675ZM211.29 95.98L211.805 99.2C210.115 99.47 208.28 99.73 206.348 99.9725L205.943 96.735C207.838 96.5 209.638 96.245 211.29 95.98ZM132.953 102.49L133.528 105.7C131.585 106.047 129.888 106.42 128.338 106.84L127.485 103.692C129.128 103.25 130.918 102.855 132.953 102.49ZM167.958 99.46L168.113 102.717C166.21 102.807 164.378 102.9 162.668 102.992L162.495 99.735C164.21 99.6425 166.048 99.55 167.958 99.46ZM124.23 104.715L125.345 107.78C123.575 108.425 122.085 109.15 120.79 110L119 107.272C120.51 106.285 122.22 105.447 124.23 104.715ZM141.715 101.272L142.068 104.515C140.14 104.722 138.338 104.95 136.71 105.188L136.24 101.96C137.908 101.717 139.75 101.487 141.715 101.272ZM159.215 99.915L159.403 103.172C157.498 103.282 155.67 103.395 153.968 103.51L153.75 100.255C155.463 100.14 157.303 100.025 159.215 99.915ZM150.47 100.487L150.715 103.74C148.795 103.885 146.973 104.035 145.303 104.192L145 100.945C146.69 100.787 148.53 100.632 150.47 100.487Z" fill="url(#paint0_linear)"/>
<g opacity="0.38">
<g opacity="0.38">
<path opacity="0.38" d="M131.2 97.0525L130.135 96.8325L136.002 68.4625H137.112L131.2 97.0525Z" fill="white"/>
<path opacity="0.38" d="M137.062 103.225L133.892 102.46L142.282 67.6776L145.905 66.5651L137.062 103.225Z" fill="white"/>
<path opacity="0.38" d="M140.377 102.51L139.32 102.257L147.835 66.865H148.955L140.377 102.51Z" fill="white"/>
<path opacity="0.38" d="M106.77 103.595L105.715 103.337L112.04 77.245L113.525 75.725L106.77 103.595Z" fill="white"/>
<path opacity="0.38" d="M112.637 109.748L109.467 108.983L118.182 72.8451L121.85 71.5551L112.637 109.748Z" fill="white"/>
<path opacity="0.38" d="M123.583 72.6612L113.648 112.334L114.703 112.598L124.638 72.9254L123.583 72.6612Z" fill="white"/>
<path opacity="0.38" d="M163.672 93.99L162.607 93.7675L168.572 64.9275L169.632 65.1625L163.672 93.99Z" fill="white"/>
<path opacity="0.38" d="M169.535 100.16L166.362 99.395L174.752 64.6125L178.172 64.35L169.535 100.16Z" fill="white"/>
<path opacity="0.38" d="M172.85 99.445L171.792 99.1925L179.96 64.325H181.3L172.85 99.445Z" fill="white"/>
<path opacity="0.38" d="M196.255 91.8826L195.19 91.6626L201.22 62.5051L202.372 62.3051L196.255 91.8826Z" fill="white"/>
<path opacity="0.38" d="M202.117 98.0525L198.947 97.2875L207.337 62.505L210.925 61.54L202.117 98.0525Z" fill="white"/>
<path opacity="0.38" d="M205.433 97.34L204.375 97.085L212.927 61.54H214.045L205.433 97.34Z" fill="white"/>
<path opacity="0.38" d="M222.947 93.91L221.882 93.69L229.945 54.71L231.2 54.005L222.947 93.91Z" fill="white"/>
<path opacity="0.38" d="M236.059 54.7086L226.771 92.3601L229.939 93.1415L239.226 55.49L236.059 54.7086Z" fill="white"/>
<path opacity="0.38" d="M241.229 55.5149L233.096 89.3062L234.153 89.5606L242.287 55.7694L241.229 55.5149Z" fill="white"/>
</g>
</g>
<g filter="url(#filter0_d)">
<path d="M72.8906 205.266C72.8281 205.516 72.7969 205.766 72.7969 206.016C72.8281 206.234 72.8125 206.391 72.75 206.484C72.7188 206.578 72.6094 206.562 72.4219 206.438C72.2344 206.281 71.9062 205.953 71.4375 205.453L70.2188 205.078L69.7031 205.594C69.6094 205.688 69.5156 205.766 69.4219 205.828C69.1719 206.047 68.9375 206.078 68.7188 205.922C68.5312 205.734 68.2812 205.516 67.9688 205.266C67.7188 205.047 67.5312 204.906 67.4062 204.844C67.3125 204.781 67.25 204.781 67.2188 204.844C67.2188 204.875 67.2188 204.984 67.2188 205.172C67.25 205.328 67.25 205.516 67.2188 205.734C67.2188 205.828 67.1406 206 66.9844 206.25C66.8281 206.469 66.75 206.625 66.75 206.719C66.6875 207 66.5938 207.094 66.4688 207C66.3438 206.906 66.2188 206.875 66.0938 206.906C66.0312 206.906 65.9375 206.875 65.8125 206.812C65.7188 206.75 65.5938 206.656 65.4375 206.531C65.3125 206.406 65.1719 206.203 65.0156 205.922C64.8906 205.609 64.7812 205.359 64.6875 205.172C64.5938 204.953 64.5 204.734 64.4062 204.516C64.3125 204.297 64.2031 204.031 64.0781 203.719C63.9844 203.406 63.875 203 63.75 202.5C63.6562 202 63.5312 201.078 63.375 199.734C63.2188 198.391 63.0469 196.781 62.8594 194.906C62.6719 193 62.4531 190.875 62.2031 188.531C61.9844 186.188 61.75 183.734 61.5 181.172C61.2812 178.609 61.0469 176.016 60.7969 173.391C60.5469 170.734 60.3125 168.172 60.0938 165.703C59.875 163.203 59.6719 160.844 59.4844 158.625C59.2969 156.406 59.125 154.453 58.9688 152.766L39.75 200.672C39.375 201.578 38.9375 202.406 38.4375 203.156C37.9375 203.875 37.4219 204.469 36.8906 204.938C36.3906 205.375 35.8906 205.672 35.3906 205.828C34.9219 205.984 34.5312 205.953 34.2188 205.734C33.75 205.422 33.3594 205.047 33.0469 204.609C32.7656 204.141 32.5156 203.656 32.2969 203.156C32.1094 202.625 31.9375 202.078 31.7812 201.516C31.625 200.953 31.4375 200.375 31.2188 199.781C30.9062 198.875 30.5 197.422 30 195.422C29.5312 193.422 28.9844 191.094 28.3594 188.438C27.7344 185.75 27.0781 182.828 26.3906 179.672C25.7031 176.484 25 173.266 24.2812 170.016C23.5625 166.734 22.8594 163.531 22.1719 160.406C21.5156 157.25 20.8906 154.344 20.2969 151.688C20.1406 152.781 19.8906 154.375 19.5469 156.469C19.2031 158.531 18.7969 160.906 18.3281 163.594C17.8906 166.25 17.4062 169.109 16.875 172.172C16.3438 175.234 15.8125 178.297 15.2812 181.359C14.7812 184.422 14.2812 187.391 13.7812 190.266C13.3125 193.141 12.875 195.734 12.4688 198.047C12.0938 200.359 11.7656 202.281 11.4844 203.812C11.2344 205.312 11.0938 206.25 11.0625 206.625C11.0625 206.906 11 207.203 10.875 207.516C10.7812 207.766 10.6406 208.031 10.4531 208.312C10.2969 208.625 10.0781 208.922 9.79688 209.203C9.54688 209.297 9.29688 209.391 9.04688 209.484C8.79688 209.578 8.57812 209.578 8.39062 209.484C8.17188 209.391 8.04688 209.219 8.01562 208.969C7.98438 208.75 7.8125 208.547 7.5 208.359C7.3125 208.203 7.10938 208.078 6.89062 207.984C6.67188 207.922 6.46875 207.719 6.28125 207.375C6.28125 207.156 6.25 206.984 6.1875 206.859C6.15625 206.797 6.125 206.75 6.09375 206.719C6.0625 206.688 6.01562 206.625 5.95312 206.531C5.89062 206.438 5.70312 206.234 5.39062 205.922C5.20312 205.547 5.0625 205.141 4.96875 204.703C4.90625 204.234 4.95312 203.656 5.10938 202.969C5.17188 202.75 5.29688 202.188 5.48438 201.281C5.67188 200.344 5.89062 199.219 6.14062 197.906C6.42188 196.562 6.71875 195.094 7.03125 193.5C7.34375 191.875 7.65625 190.234 7.96875 188.578C8.28125 186.922 8.5625 185.328 8.8125 183.797C9.09375 182.266 9.32812 180.906 9.51562 179.719C9.70312 178.688 10 177.234 10.4062 175.359C10.8438 173.453 11.3438 171.344 11.9062 169.031C12.4688 166.719 13.0625 164.297 13.6875 161.766C14.3438 159.234 14.9688 156.797 15.5625 154.453C16.1562 152.078 16.6875 149.906 17.1562 147.938C17.6562 145.938 18.0312 144.344 18.2812 143.156C18.2188 143 18.1719 142.844 18.1406 142.688C18.1094 142.531 18.0938 142.375 18.0938 142.219C17.9688 141.906 17.9844 141.734 18.1406 141.703C18.3281 141.672 18.4688 141.609 18.5625 141.516C18.5625 141.453 18.5781 141.406 18.6094 141.375C18.6406 141.344 18.6562 141.297 18.6562 141.234C18.6562 141.047 18.6875 140.953 18.75 140.953C18.75 140.547 18.8125 140.281 18.9375 140.156C19.0625 140.031 19.1875 139.953 19.3125 139.922C19.4688 139.891 19.6094 139.875 19.7344 139.875C19.8594 139.875 19.9375 139.781 19.9688 139.594C20.0312 139.188 20.0938 138.922 20.1562 138.797C20.25 138.641 20.3438 138.578 20.4375 138.609C20.5625 138.609 20.7188 138.672 20.9062 138.797C21.0938 138.891 21.3281 139 21.6094 139.125C21.7656 139.188 21.8906 139.219 21.9844 139.219C22.1094 139.188 22.2344 139.188 22.3594 139.219C22.4844 139.219 22.625 139.25 22.7812 139.312C22.9688 139.375 23.1875 139.5 23.4375 139.688C23.625 139.844 23.7812 139.922 23.9062 139.922C24.0625 139.922 24.1875 139.875 24.2812 139.781C24.4062 139.688 24.5 139.578 24.5625 139.453C24.6562 139.328 24.7344 139.219 24.7969 139.125C24.8906 138.969 25.0312 138.891 25.2188 138.891C25.4062 138.891 25.5781 138.969 25.7344 139.125C25.9219 139.375 26.0625 139.547 26.1562 139.641C26.2812 139.734 26.3594 139.812 26.3906 139.875C26.4531 139.906 26.4844 139.938 26.4844 139.969C26.4844 139.969 26.5 140.016 26.5312 140.109C27 141.516 27.4062 142.984 27.75 144.516C28.125 146.047 28.5 147.797 28.875 149.766C29.2812 151.734 29.75 154.016 30.2812 156.609C30.8125 159.172 31.4844 162.203 32.2969 165.703C33.6406 171.641 34.8125 176.641 35.8125 180.703C36.8125 184.734 37.6562 187.766 38.3438 189.797C38.9688 188.359 39.7188 186.609 40.5938 184.547C41.5 182.484 42.4531 180.25 43.4531 177.844C44.4531 175.406 45.5 172.891 46.5938 170.297C47.6875 167.672 48.7656 165.078 49.8281 162.516C50.8906 159.953 51.9062 157.5 52.875 155.156C53.875 152.812 54.75 150.703 55.5 148.828C56.2812 146.953 56.9375 145.375 57.4688 144.094C58 142.812 58.3438 141.984 58.5 141.609C58.6875 141.172 58.8281 140.812 58.9219 140.531C59.0469 140.25 59.1875 140.031 59.3438 139.875C59.4375 139.625 59.5625 139.453 59.7188 139.359C59.9062 139.234 60.1094 139.219 60.3281 139.312C60.3906 139.375 60.4688 139.422 60.5625 139.453C60.625 139.516 60.6875 139.562 60.75 139.594C60.8438 139.594 60.9219 139.625 60.9844 139.688C61.0156 139.531 61.0781 139.453 61.1719 139.453C61.2656 139.422 61.375 139.406 61.5 139.406C61.625 139.438 61.7656 139.469 61.9219 139.5H62.0625H62.25C62.3438 139.438 62.4375 139.391 62.5312 139.359C62.625 139.297 62.7188 139.312 62.8125 139.406C63.0938 139.562 63.2812 139.578 63.375 139.453C63.5 139.297 63.6875 139.219 63.9375 139.219C64.0938 139.219 64.2344 139.203 64.3594 139.172C64.4531 139.141 64.5469 139.109 64.6406 139.078C64.7344 139.016 64.7969 138.938 64.8281 138.844C64.9531 138.844 65.0469 138.859 65.1094 138.891C65.2031 138.922 65.2812 138.953 65.3438 138.984L65.4844 139.125C65.5781 139.25 65.7188 139.797 65.9062 140.766C66.0938 141.703 66.2969 142.875 66.5156 144.281C66.7656 145.656 67 147.156 67.2188 148.781C67.4688 150.406 67.6875 151.953 67.875 153.422C67.9375 153.922 68.0625 155.031 68.25 156.75C68.4375 158.438 68.6562 160.516 68.9062 162.984C69.1562 165.422 69.4375 168.141 69.75 171.141C70.0625 174.141 70.375 177.172 70.6875 180.234C71 183.297 71.2969 186.297 71.5781 189.234C71.8594 192.141 72.0938 194.75 72.2812 197.062C72.5 199.375 72.6562 201.281 72.75 202.781C72.875 204.25 72.9219 205.078 72.8906 205.266Z" fill="#EABE3F"/>
<path d="M104.885 207.672C100.277 207.672 96.2125 206.68 92.6925 204.696C89.2365 202.712 86.5485 199.896 84.6285 196.248C82.7725 192.536 81.8445 188.248 81.8445 183.384C81.8445 178.456 82.7725 174.168 84.6285 170.52C86.5485 166.808 89.2365 163.96 92.6925 161.976C96.2125 159.992 100.277 159 104.885 159C109.493 159 113.525 159.992 116.981 161.976C120.501 163.96 123.189 166.808 125.045 170.52C126.965 174.168 127.925 178.456 127.925 183.384C127.925 188.248 126.965 192.536 125.045 196.248C123.189 199.896 120.501 202.712 116.981 204.696C113.525 206.68 109.493 207.672 104.885 207.672ZM104.885 199.992C109.173 199.992 112.437 198.584 114.677 195.768C116.981 192.952 118.133 188.824 118.133 183.384C118.133 178.008 116.981 173.912 114.677 171.096C112.373 168.216 109.109 166.776 104.885 166.776C100.661 166.776 97.3965 168.216 95.0925 171.096C92.7885 173.912 91.6365 178.008 91.6365 183.384C91.6365 188.824 92.7565 192.952 94.9965 195.768C97.3005 198.584 100.597 199.992 104.885 199.992ZM171.376 162.072C171.76 161.112 172.304 160.408 173.008 159.96C173.776 159.512 174.576 159.288 175.408 159.288C176.624 159.288 177.68 159.704 178.576 160.536C179.536 161.368 180.016 162.36 180.016 163.512C180.016 164.152 179.888 164.76 179.632 165.336L161.296 204.216C160.848 205.24 160.144 206.04 159.184 206.616C158.288 207.128 157.328 207.384 156.304 207.384C155.28 207.384 154.288 207.128 153.328 206.616C152.432 206.04 151.76 205.24 151.312 204.216L132.976 165.336C132.72 164.824 132.592 164.216 132.592 163.512C132.592 162.36 133.104 161.368 134.128 160.536C135.152 159.704 136.304 159.288 137.584 159.288C139.44 159.288 140.816 160.184 141.712 161.976L156.592 195L171.376 162.072ZM194.241 207.48C192.833 207.48 191.649 207.096 190.689 206.328C189.793 205.56 189.345 204.408 189.345 202.872V163.896C189.345 162.36 189.793 161.208 190.689 160.44C191.649 159.608 192.833 159.192 194.241 159.192C195.649 159.192 196.801 159.608 197.697 160.44C198.593 161.208 199.041 162.36 199.041 163.896V202.872C199.041 204.408 198.593 205.56 197.697 206.328C196.801 207.096 195.649 207.48 194.241 207.48ZM194.241 149.784C192.385 149.784 190.913 149.272 189.825 148.248C188.737 147.224 188.193 145.88 188.193 144.216C188.193 142.552 188.737 141.24 189.825 140.28C190.913 139.256 192.385 138.744 194.241 138.744C196.033 138.744 197.473 139.256 198.561 140.28C199.713 141.24 200.289 142.552 200.289 144.216C200.289 145.88 199.745 147.224 198.657 148.248C197.569 149.272 196.097 149.784 194.241 149.784ZM249.267 195.192C250.163 195.192 250.899 195.544 251.475 196.248C252.051 196.952 252.339 197.848 252.339 198.936C252.339 200.792 251.187 202.36 248.883 203.64C246.643 204.92 244.179 205.912 241.491 206.616C238.867 207.32 236.339 207.672 233.907 207.672C226.483 207.672 220.627 205.528 216.339 201.24C212.051 196.888 209.907 190.968 209.907 183.48C209.907 178.68 210.835 174.424 212.691 170.712C214.611 167 217.267 164.12 220.659 162.072C224.115 160.024 228.019 159 232.371 159C238.643 159 243.603 161.016 247.251 165.048C250.899 169.08 252.723 174.52 252.723 181.368C252.723 183.928 251.571 185.208 249.267 185.208H219.603C220.243 195.128 225.011 200.088 233.907 200.088C236.275 200.088 238.323 199.768 240.051 199.128C241.779 198.488 243.603 197.656 245.523 196.632C245.715 196.504 246.227 196.248 247.059 195.864C247.955 195.416 248.691 195.192 249.267 195.192ZM232.563 166.104C228.851 166.104 225.875 167.288 223.635 169.656C221.395 172.024 220.051 175.352 219.603 179.64H244.371C244.179 175.288 243.059 171.96 241.011 169.656C239.027 167.288 236.211 166.104 232.563 166.104ZM326.495 162.168C327.199 160.248 328.511 159.288 330.431 159.288C331.647 159.288 332.735 159.704 333.695 160.536C334.655 161.368 335.135 162.392 335.135 163.608C335.135 164.248 335.007 164.824 334.751 165.336L318.815 204.216C318.431 205.24 317.791 206.04 316.895 206.616C315.999 207.128 315.007 207.384 313.919 207.384C312.895 207.384 311.935 207.128 311.039 206.616C310.143 206.04 309.503 205.24 309.119 204.216L296.639 173.4L284.447 204.216C284.063 205.24 283.423 206.04 282.527 206.616C281.695 207.128 280.735 207.384 279.647 207.384C278.623 207.384 277.631 207.128 276.671 206.616C275.775 206.04 275.103 205.24 274.655 204.216L258.815 165.336C258.559 164.824 258.431 164.28 258.431 163.704C258.431 162.424 258.943 161.368 259.967 160.536C261.055 159.704 262.239 159.288 263.519 159.288C265.439 159.288 266.751 160.216 267.455 162.072L279.839 194.808L292.511 162.36C292.895 161.336 293.503 160.568 294.335 160.056C295.167 159.544 296.063 159.288 297.023 159.288C297.919 159.288 298.783 159.544 299.615 160.056C300.447 160.568 301.055 161.336 301.439 162.36L314.111 194.616L326.495 162.168Z" fill="#EBEBEB"/>
</g>
<g filter="url(#filter1_f)">
<path d="M72.8906 210.734C72.8281 210.484 72.7969 210.234 72.7969 209.984C72.8281 209.766 72.8125 209.609 72.75 209.516C72.7188 209.422 72.6094 209.438 72.4219 209.562C72.2344 209.719 71.9062 210.047 71.4375 210.547L70.2188 210.922L69.7031 210.406C69.6094 210.312 69.5156 210.234 69.4219 210.172C69.1719 209.953 68.9375 209.922 68.7188 210.078C68.5312 210.266 68.2812 210.484 67.9688 210.734C67.7188 210.953 67.5312 211.094 67.4062 211.156C67.3125 211.219 67.25 211.219 67.2188 211.156C67.2188 211.125 67.2188 211.016 67.2188 210.828C67.25 210.672 67.25 210.484 67.2188 210.266C67.2188 210.172 67.1406 210 66.9844 209.75C66.8281 209.531 66.75 209.375 66.75 209.281C66.6875 209 66.5938 208.906 66.4688 209C66.3438 209.094 66.2188 209.125 66.0938 209.094C66.0312 209.094 65.9375 209.125 65.8125 209.188C65.7188 209.25 65.5938 209.344 65.4375 209.469C65.3125 209.594 65.1719 209.797 65.0156 210.078C64.8906 210.391 64.7812 210.641 64.6875 210.828C64.5938 211.047 64.5 211.266 64.4062 211.484C64.3125 211.703 64.2031 211.969 64.0781 212.281C63.9844 212.594 63.875 213 63.75 213.5C63.6562 214 63.5312 214.922 63.375 216.266C63.2188 217.609 63.0469 219.219 62.8594 221.094C62.6719 223 62.4531 225.125 62.2031 227.469C61.9844 229.812 61.75 232.266 61.5 234.828C61.2812 237.391 61.0469 239.984 60.7969 242.609C60.5469 245.266 60.3125 247.828 60.0938 250.297C59.875 252.797 59.6719 255.156 59.4844 257.375C59.2969 259.594 59.125 261.547 58.9688 263.234L39.75 215.328C39.375 214.422 38.9375 213.594 38.4375 212.844C37.9375 212.125 37.4219 211.531 36.8906 211.062C36.3906 210.625 35.8906 210.328 35.3906 210.172C34.9219 210.016 34.5312 210.047 34.2188 210.266C33.75 210.578 33.3594 210.953 33.0469 211.391C32.7656 211.859 32.5156 212.344 32.2969 212.844C32.1094 213.375 31.9375 213.922 31.7812 214.484C31.625 215.047 31.4375 215.625 31.2188 216.219C30.9062 217.125 30.5 218.578 30 220.578C29.5312 222.578 28.9844 224.906 28.3594 227.562C27.7344 230.25 27.0781 233.172 26.3906 236.328C25.7031 239.516 25 242.734 24.2812 245.984C23.5625 249.266 22.8594 252.469 22.1719 255.594C21.5156 258.75 20.8906 261.656 20.2969 264.312C20.1406 263.219 19.8906 261.625 19.5469 259.531C19.2031 257.469 18.7969 255.094 18.3281 252.406C17.8906 249.75 17.4062 246.891 16.875 243.828C16.3438 240.766 15.8125 237.703 15.2812 234.641C14.7812 231.578 14.2812 228.609 13.7812 225.734C13.3125 222.859 12.875 220.266 12.4688 217.953C12.0938 215.641 11.7656 213.719 11.4844 212.188C11.2344 210.688 11.0938 209.75 11.0625 209.375C11.0625 209.094 11 208.797 10.875 208.484C10.7812 208.234 10.6406 207.969 10.4531 207.688C10.2969 207.375 10.0781 207.078 9.79688 206.797C9.54688 206.703 9.29688 206.609 9.04688 206.516C8.79688 206.422 8.57812 206.422 8.39062 206.516C8.17188 206.609 8.04688 206.781 8.01562 207.031C7.98438 207.25 7.8125 207.453 7.5 207.641C7.3125 207.797 7.10938 207.922 6.89062 208.016C6.67188 208.078 6.46875 208.281 6.28125 208.625C6.28125 208.844 6.25 209.016 6.1875 209.141C6.15625 209.203 6.125 209.25 6.09375 209.281C6.0625 209.312 6.01562 209.375 5.95312 209.469C5.89062 209.562 5.70312 209.766 5.39062 210.078C5.20312 210.453 5.0625 210.859 4.96875 211.297C4.90625 211.766 4.95312 212.344 5.10938 213.031C5.17188 213.25 5.29688 213.812 5.48438 214.719C5.67188 215.656 5.89062 216.781 6.14062 218.094C6.42188 219.438 6.71875 220.906 7.03125 222.5C7.34375 224.125 7.65625 225.766 7.96875 227.422C8.28125 229.078 8.5625 230.672 8.8125 232.203C9.09375 233.734 9.32812 235.094 9.51562 236.281C9.70312 237.312 10 238.766 10.4062 240.641C10.8438 242.547 11.3438 244.656 11.9062 246.969C12.4688 249.281 13.0625 251.703 13.6875 254.234C14.3438 256.766 14.9688 259.203 15.5625 261.547C16.1562 263.922 16.6875 266.094 17.1562 268.062C17.6562 270.062 18.0312 271.656 18.2812 272.844C18.2188 273 18.1719 273.156 18.1406 273.312C18.1094 273.469 18.0938 273.625 18.0938 273.781C17.9688 274.094 17.9844 274.266 18.1406 274.297C18.3281 274.328 18.4688 274.391 18.5625 274.484C18.5625 274.547 18.5781 274.594 18.6094 274.625C18.6406 274.656 18.6562 274.703 18.6562 274.766C18.6562 274.953 18.6875 275.047 18.75 275.047C18.75 275.453 18.8125 275.719 18.9375 275.844C19.0625 275.969 19.1875 276.047 19.3125 276.078C19.4688 276.109 19.6094 276.125 19.7344 276.125C19.8594 276.125 19.9375 276.219 19.9688 276.406C20.0312 276.812 20.0938 277.078 20.1562 277.203C20.25 277.359 20.3438 277.422 20.4375 277.391C20.5625 277.391 20.7188 277.328 20.9062 277.203C21.0938 277.109 21.3281 277 21.6094 276.875C21.7656 276.812 21.8906 276.781 21.9844 276.781C22.1094 276.812 22.2344 276.812 22.3594 276.781C22.4844 276.781 22.625 276.75 22.7812 276.688C22.9688 276.625 23.1875 276.5 23.4375 276.312C23.625 276.156 23.7812 276.078 23.9062 276.078C24.0625 276.078 24.1875 276.125 24.2812 276.219C24.4062 276.312 24.5 276.422 24.5625 276.547C24.6562 276.672 24.7344 276.781 24.7969 276.875C24.8906 277.031 25.0312 277.109 25.2188 277.109C25.4062 277.109 25.5781 277.031 25.7344 276.875C25.9219 276.625 26.0625 276.453 26.1562 276.359C26.2812 276.266 26.3594 276.188 26.3906 276.125C26.4531 276.094 26.4844 276.062 26.4844 276.031C26.4844 276.031 26.5 275.984 26.5312 275.891C27 274.484 27.4062 273.016 27.75 271.484C28.125 269.953 28.5 268.203 28.875 266.234C29.2812 264.266 29.75 261.984 30.2812 259.391C30.8125 256.828 31.4844 253.797 32.2969 250.297C33.6406 244.359 34.8125 239.359 35.8125 235.297C36.8125 231.266 37.6562 228.234 38.3438 226.203C38.9688 227.641 39.7188 229.391 40.5938 231.453C41.5 233.516 42.4531 235.75 43.4531 238.156C44.4531 240.594 45.5 243.109 46.5938 245.703C47.6875 248.328 48.7656 250.922 49.8281 253.484C50.8906 256.047 51.9062 258.5 52.875 260.844C53.875 263.188 54.75 265.297 55.5 267.172C56.2812 269.047 56.9375 270.625 57.4688 271.906C58 273.188 58.3438 274.016 58.5 274.391C58.6875 274.828 58.8281 275.188 58.9219 275.469C59.0469 275.75 59.1875 275.969 59.3438 276.125C59.4375 276.375 59.5625 276.547 59.7188 276.641C59.9062 276.766 60.1094 276.781 60.3281 276.688C60.3906 276.625 60.4688 276.578 60.5625 276.547C60.625 276.484 60.6875 276.438 60.75 276.406C60.8438 276.406 60.9219 276.375 60.9844 276.312C61.0156 276.469 61.0781 276.547 61.1719 276.547C61.2656 276.578 61.375 276.594 61.5 276.594C61.625 276.562 61.7656 276.531 61.9219 276.5H62.0625H62.25C62.3438 276.562 62.4375 276.609 62.5312 276.641C62.625 276.703 62.7188 276.688 62.8125 276.594C63.0938 276.438 63.2812 276.422 63.375 276.547C63.5 276.703 63.6875 276.781 63.9375 276.781C64.0938 276.781 64.2344 276.797 64.3594 276.828C64.4531 276.859 64.5469 276.891 64.6406 276.922C64.7344 276.984 64.7969 277.062 64.8281 277.156C64.9531 277.156 65.0469 277.141 65.1094 277.109C65.2031 277.078 65.2812 277.047 65.3438 277.016L65.4844 276.875C65.5781 276.75 65.7188 276.203 65.9062 275.234C66.0938 274.297 66.2969 273.125 66.5156 271.719C66.7656 270.344 67 268.844 67.2188 267.219C67.4688 265.594 67.6875 264.047 67.875 262.578C67.9375 262.078 68.0625 260.969 68.25 259.25C68.4375 257.562 68.6562 255.484 68.9062 253.016C69.1562 250.578 69.4375 247.859 69.75 244.859C70.0625 241.859 70.375 238.828 70.6875 235.766C71 232.703 71.2969 229.703 71.5781 226.766C71.8594 223.859 72.0938 221.25 72.2812 218.938C72.5 216.625 72.6562 214.719 72.75 213.219C72.875 211.75 72.9219 210.922 72.8906 210.734Z" fill="#EABE3F" fill-opacity="0.08"/>
<path d="M104.885 208.328C100.277 208.328 96.2125 209.32 92.6925 211.304C89.2365 213.288 86.5485 216.104 84.6285 219.752C82.7725 223.464 81.8445 227.752 81.8445 232.616C81.8445 237.544 82.7725 241.832 84.6285 245.48C86.5485 249.192 89.2365 252.04 92.6925 254.024C96.2125 256.008 100.277 257 104.885 257C109.493 257 113.525 256.008 116.981 254.024C120.501 252.04 123.189 249.192 125.045 245.48C126.965 241.832 127.925 237.544 127.925 232.616C127.925 227.752 126.965 223.464 125.045 219.752C123.189 216.104 120.501 213.288 116.981 211.304C113.525 209.32 109.493 208.328 104.885 208.328ZM104.885 216.008C109.173 216.008 112.437 217.416 114.677 220.232C116.981 223.048 118.133 227.176 118.133 232.616C118.133 237.992 116.981 242.088 114.677 244.904C112.373 247.784 109.109 249.224 104.885 249.224C100.661 249.224 97.3965 247.784 95.0925 244.904C92.7885 242.088 91.6365 237.992 91.6365 232.616C91.6365 227.176 92.7565 223.048 94.9965 220.232C97.3005 217.416 100.597 216.008 104.885 216.008ZM171.376 253.928C171.76 254.888 172.304 255.592 173.008 256.04C173.776 256.488 174.576 256.712 175.408 256.712C176.624 256.712 177.68 256.296 178.576 255.464C179.536 254.632 180.016 253.64 180.016 252.488C180.016 251.848 179.888 251.24 179.632 250.664L161.296 211.784C160.848 210.76 160.144 209.96 159.184 209.384C158.288 208.872 157.328 208.616 156.304 208.616C155.28 208.616 154.288 208.872 153.328 209.384C152.432 209.96 151.76 210.76 151.312 211.784L132.976 250.664C132.72 251.176 132.592 251.784 132.592 252.488C132.592 253.64 133.104 254.632 134.128 255.464C135.152 256.296 136.304 256.712 137.584 256.712C139.44 256.712 140.816 255.816 141.712 254.024L156.592 221L171.376 253.928ZM194.241 208.52C192.833 208.52 191.649 208.904 190.689 209.672C189.793 210.44 189.345 211.592 189.345 213.128V252.104C189.345 253.64 189.793 254.792 190.689 255.56C191.649 256.392 192.833 256.808 194.241 256.808C195.649 256.808 196.801 256.392 197.697 255.56C198.593 254.792 199.041 253.64 199.041 252.104V213.128C199.041 211.592 198.593 210.44 197.697 209.672C196.801 208.904 195.649 208.52 194.241 208.52ZM194.241 266.216C192.385 266.216 190.913 266.728 189.825 267.752C188.737 268.776 188.193 270.12 188.193 271.784C188.193 273.448 188.737 274.76 189.825 275.72C190.913 276.744 192.385 277.256 194.241 277.256C196.033 277.256 197.473 276.744 198.561 275.72C199.713 274.76 200.289 273.448 200.289 271.784C200.289 270.12 199.745 268.776 198.657 267.752C197.569 266.728 196.097 266.216 194.241 266.216ZM249.267 220.808C250.163 220.808 250.899 220.456 251.475 219.752C252.051 219.048 252.339 218.152 252.339 217.064C252.339 215.208 251.187 213.64 248.883 212.36C246.643 211.08 244.179 210.088 241.491 209.384C238.867 208.68 236.339 208.328 233.907 208.328C226.483 208.328 220.627 210.472 216.339 214.76C212.051 219.112 209.907 225.032 209.907 232.52C209.907 237.32 210.835 241.576 212.691 245.288C214.611 249 217.267 251.88 220.659 253.928C224.115 255.976 228.019 257 232.371 257C238.643 257 243.603 254.984 247.251 250.952C250.899 246.92 252.723 241.48 252.723 234.632C252.723 232.072 251.571 230.792 249.267 230.792H219.603C220.243 220.872 225.011 215.912 233.907 215.912C236.275 215.912 238.323 216.232 240.051 216.872C241.779 217.512 243.603 218.344 245.523 219.368C245.715 219.496 246.227 219.752 247.059 220.136C247.955 220.584 248.691 220.808 249.267 220.808ZM232.563 249.896C228.851 249.896 225.875 248.712 223.635 246.344C221.395 243.976 220.051 240.648 219.603 236.36H244.371C244.179 240.712 243.059 244.04 241.011 246.344C239.027 248.712 236.211 249.896 232.563 249.896ZM326.495 253.832C327.199 255.752 328.511 256.712 330.431 256.712C331.647 256.712 332.735 256.296 333.695 255.464C334.655 254.632 335.135 253.608 335.135 252.392C335.135 251.752 335.007 251.176 334.751 250.664L318.815 211.784C318.431 210.76 317.791 209.96 316.895 209.384C315.999 208.872 315.007 208.616 313.919 208.616C312.895 208.616 311.935 208.872 311.039 209.384C310.143 209.96 309.503 210.76 309.119 211.784L296.639 242.6L284.447 211.784C284.063 210.76 283.423 209.96 282.527 209.384C281.695 208.872 280.735 208.616 279.647 208.616C278.623 208.616 277.631 208.872 276.671 209.384C275.775 209.96 275.103 210.76 274.655 211.784L258.815 250.664C258.559 251.176 258.431 251.72 258.431 252.296C258.431 253.576 258.943 254.632 259.967 255.464C261.055 256.296 262.239 256.712 263.519 256.712C265.439 256.712 266.751 255.784 267.455 253.928L279.839 221.192L292.511 253.64C292.895 254.664 293.503 255.432 294.335 255.944C295.167 256.456 296.063 256.712 297.023 256.712C297.919 256.712 298.783 256.456 299.615 255.944C300.447 255.432 301.055 254.664 301.439 253.64L314.111 221.384L326.495 253.832Z" fill="#EBEBEB" fill-opacity="0.08"/>
</g>
<defs>
<filter id="filter0_d" x="0.941895" y="138.602" width="338.193" height="78.9531" filterUnits="userSpaceOnUse" color-interpolation-filters="sRGB">
<feFlood flood-opacity="0" result="BackgroundImageFix"/>
<feColorMatrix in="SourceAlpha" type="matrix" values="0 0 0 0 0 0 0 0 0 0 0 0 0 0 0 0 0 0 127 0" result="hardAlpha"/>
<feOffset dy="4"/>
<feGaussianBlur stdDeviation="2"/>
<feComposite in2="hardAlpha" operator="out"/>
<feColorMatrix type="matrix" values="0 0 0 0 0 0 0 0 0 0 0 0 0 0 0 0 0 0 0.25 0"/>
<feBlend mode="normal" in2="BackgroundImageFix" result="effect1_dropShadow"/>
<feBlend mode="normal" in="SourceGraphic" in2="effect1_dropShadow" result="shape"/>
</filter>
<filter id="filter1_f" x="3.94189" y="205.445" width="332.193" height="72.9531" filterUnits="userSpaceOnUse" color-interpolation-filters="sRGB">
<feFlood flood-opacity="0" result="BackgroundImageFix"/>
<feBlend mode="normal" in="SourceGraphic" in2="BackgroundImageFix" result="shape"/>
<feGaussianBlur stdDeviation="0.5" result="effect1_foregroundBlur"/>
</filter>
<linearGradient id="paint0_linear" x1="172.465" y1="7.85999" x2="172.465" y2="154.43" gradientUnits="userSpaceOnUse">
<stop stop-color="#FFBD00"/>
<stop offset="1" stop-color="#FFBD00" stop-opacity="0"/>
</linearGradient>
</defs>
</svg>
